*******************************************************************************
 Killer Elite.2011.KORSUB.HDRip.Xvid.AC3-SiNiSTER
*******************************************************************************
-------------------------------------------------------------------------------
 General Information
------------------------------------------------------------------------------- 
http://www.pix2links.com/image/tB8XH.jpg
Format : AVI
Format/Info : Audio Video Interleave
Format profile : OpenDML
File size : 2.00 GiB
Duration : 1h 56mn
Overall bit rate : 2 456 Kbps
Writing library : MPlayer
Video
ID : 0
Format : MPEG-4 Visual
Format profile : Advanced Simple@L5
Format settings, BVOP : Yes
Format settings, QPel : No
Format settings, GMC : No warppoints
Format settings, Matrix : Default (H.263)
Muxing mode : Packed bitstream
Codec ID : XVID
Codec ID/Hint : XviD
Duration : 1h 56mn
Bit rate : 2 001 Kbps
Width : 720 pixels
Height : 304 pixels
Display aspect ratio : 2.35:1
Frame rate : 29.970 fps
Color space : YUV
Chroma subsampling : 4:2:0
Bit depth : 8 bits
Scan type : Progressive
Bits/(Pixel*Frame) : 0.305
Stream size : 1.63 GiB (81%)
Writing library : XviD 1.2.1 (UTC 2008-12-04)
Audio
ID : 1
Format : AC-3
Format/Info : Audio Coding 3
Mode extension : CM (complete main)
Codec ID : 2000
Duration : 1h 56mn
Bit rate mode : Constant
Bit rate : 448 Kbps
Channel(s) : 6 channels
Channel positions : Front: L C R, Side: L R, LFE
Sampling rate : 48.0 KHz
Bit depth : 16 bits
Stream size : 374 MiB (18%)
Alignment : Split accross interleaves
Interleave, duration : 500 ms (14.98 video frames)
Interleave, preload duration : 500 ms
Video Source: Killer.Elite.2011.KORSUB.720p.HDRip.x264.AC3-ZERO.....thanks 
Audio Source: Killer.Elite.2011.KORSUB.720p.HDRip.x264.AC3-ZERO.....thanks
Greets:
DarkScene,HDScene,Noir,CrEwSaDe,blackjesus,ViSiON,HDLiTE,UnKnOwN,IMAGiNE,
FLAWL3SS,Rx,ELEKTRI4KA,CiNEDUB,BDK,SAFCuk009,HiVE-CM8..... and everybody else we 
respect.. u know who u are
-------------------------------------------------------------------------------
 Post Information
-------------------------------------------------------------------------------
Encoded by...........: SiNiSTER
 
Have sumthing to offer..looking for suppliers... cammers,cams,screeners, audio
supplier.. and any pre retail DVD/BR any RC...if u can provide any email us at
sinister@hushmail.me
-------------------------------------------------------------------------------
 Release Notes
-------------------------------------------------------------------------------
spurce was nice just made a script to resize, denoise, adjust coloring slightly,
and sharpen.. then converted the AC3 to higher bitrate and upmixed to 5.1...enjoy
-------------------------------------------------------------------------------
 ScreenShots
------------------------------------------------------------------------------- 
http://img15.imageshack.us/img15/2334/vlcsnap00001w.png 
http://img545.imageshack.us/img545/5083/vlcsnap00002b.png 
http://img171.imageshack.us/img171/8338/vlcsnap00003ua.png 
http://img687.imageshack.us/img687/5931/vlcsnap00004gj.png 
http://imgboot.com/thumbs/edman74/killerelite.jpg
-------------------------------------------------------------------------------
[img]http://leetleech.org/images/33506450373550172140.gif[/img]
-------------------------------------------------------------------------------
Generated with Cool NFO Creator - http://fly.to/coolbeans
------------------------------------------------------------------------------- 
http://www.pix2links.com/images/33502453931372952618.gif